<svg xmlns:dc="http://purl.org/dc/elements/1.1/" xmlns:cc="http://creativecommons.org/ns#" xmlns:rdf="http://www.w3.org/1999/02/22-rdf-syntax-ns#" xmlns:svg="http://www.w3.org/2000/svg" xmlns="http://www.w3.org/2000/svg" xmlns:sodipodi="http://sodipodi.sourceforge.net/DTD/sodipodi-0.dtd" xmlns:inkscape="http://www.inkscape.org/namespaces/inkscape" version="1.1" width="96" height="92" style=""><rect id="backgroundrect" width="100%" height="100%" x="0" y="0" fill="none" stroke="none" class="" style=""/><g class="currentLayer" style=""><title>Layer 1</title><g id="svg_1" class=""><path style="text-indent:0;text-transform:none;direction:ltr;block-progression:tb;baseline-shift:baseline;color:#000000;enable-background:accumulate;" d="m18.430855763258446,92.47525233162696 l5.637194385948181,-2.828155241203308 l23.696670975494385,-12.027900899887085 l24.574338340015412,12.027900899887085 l5.637244081172943,2.7940311868667598 l-0.9451700448226927,-6.269549555969238 l-4.016947842884064,-26.50908939552307 l18.9370876328125,-19.830697225437163 l4.354510939617157,-4.565848165454865 l-6.177331783885956,-1.022197643203736 l-26.228371009887695,-4.327311086597443 l-12.82726515525818,-24.328413237743376 l-2.9367227422332762,-5.588029243583679 l-2.903112205219269,5.622103602695465 l-12.185848889255524,23.783223491954804 l-26.869744206695557,4.8384264732742315 l-6.177398044185638,1.1244207205390946 l4.422096445293427,4.497682882156372 l18.63327421972275,19.012945736904143 l-3.7469536867523194,27.326907144355776 l-0.8775514089965821,6.269549555969238 zm51.140212812366485,-11.550992392921447 l-20.38859238368988,-10.017563407516478 l-1.4514484296226504,-0.7156112365722661 l-1.4515643851470954,0.7497352909088137 l-19.544750902156828,9.881232840919495 l3.105553985824585,-22.624744977378846 l0.20264056150436408,-1.6354698469161986 l-1.1478106063270581,-1.1585613399505625 l-15.358905555381774,-15.707782598285673 l22.278932473335264,-3.9865840605545046 l1.6202796732139584,-0.30666923200607304 l0.7426288737678536,-1.4651477465820313 l10.059274266166687,-19.626284200916288 l10.633071896343232,20.171457381629942 l0.7764381916809081,1.4651477465820313 l1.5865863108253488,0.27259487289428747 l21.603749958614348,3.5777083162879944 l-15.696511721309662,16.45750132411957 l-1.147694650802614,1.1925197435379036 l0.27004385135650655,1.601345792579652 l3.3080785918045046,21.87517533721924 z" fill="#000000" fill-opacity="1" stroke="none" marker="none" visibility="visible" display="inline" overflow="visible" id="svg_2"/></g></g></svg>