<svg xmlns="http://www.w3.org/2000/svg" xmlns:xlink="http://www.w3.org/1999/xlink" version="1.1" enable-background="new 0 0 100 100" xml:space="preserve" width="211" height="121"><rect id="backgroundrect" width="100%" height="100%" x="0" y="0" fill="none" stroke="none" class="" style=""/><g class="currentLayer" style=""><title>Layer 1</title><path d="M60.322189912632524,120.64437508583069 h90.65563042163849 c33.435726809501645,0 60.322187542915344,-26.886460733413696 60.322187542915344,-60.322187542915344 c0,-33.435726809501645 -26.886460733413696,-60.322187542915344 -60.322187542915344,-60.322187542915344 H60.322189912632524 c-33.435726809501645,0 -60.322187542915344,26.886460733413696 -60.322187542915344,60.322187542915344 C0.0000023697171798175987,93.757914352417 26.88646310313088,120.64437508583069 60.322189912632524,120.64437508583069 zM61.011586341694425,19.99249644279479 c22.405383944511414,0 40.32969110012054,17.92430715560913 40.32969110012054,40.32969110012054 c0,22.405383944511414 -17.92430715560913,40.32969110012054 -40.32969110012054,40.32969110012054 c-22.405383944511414,0 -40.32969110012054,-17.92430715560913 -40.32969110012054,-40.32969110012054 C20.68189524157387,37.91680359840393 38.60620239718301,19.99249644279479 61.011586341694425,19.99249644279479 z" id="svg_1" class=""/></g></svg>