<svg xmlns="http://www.w3.org/2000/svg" xmlns:xlink="http://www.w3.org/1999/xlink" version="1.1" enable-background="new 0 0 100 100" xml:space="preserve" width="90" height="83" style=""><rect id="backgroundrect" width="100%" height="100%" x="0" y="0" fill="none" stroke="none" class="" style=""/><g class="currentLayer" style=""><title>Layer 1</title><g display="none" id="svg_1" class=""><rect x="40" y="12.895629227161407" display="inline" width="10" height="10" id="svg_2"/><rect x="30" y="2.8956292271614075" display="inline" width="10" height="10" id="svg_3"/><rect x="20" y="2.8956292271614075" display="inline" width="10" height="10" id="svg_4"/><rect x="10" y="12.895629227161407" display="inline" width="10" height="10" id="svg_5"/><rect x="0" y="22.895629227161407" display="inline" width="10" height="10" id="svg_6"/><rect x="0" y="32.89562922716141" display="inline" width="10" height="10" id="svg_7"/><rect x="10" y="42.89562922716141" display="inline" width="10" height="10" id="svg_8"/><rect x="20" y="52.89562922716141" display="inline" width="10" height="10" id="svg_9"/><rect x="30" y="62.89562922716141" display="inline" width="10" height="10" id="svg_10"/><rect x="40" y="72.89562922716141" display="inline" width="10" height="10" id="svg_11"/><rect x="50" y="2.8956292271614075" display="inline" width="10" height="10" id="svg_12"/><rect x="60" y="2.8956292271614075" display="inline" width="10" height="10" id="svg_13"/><rect x="70" y="12.895629227161407" display="inline" width="10" height="10" id="svg_14"/><rect x="80" y="22.895629227161407" display="inline" width="10" height="10" id="svg_15"/><rect x="80" y="32.89562922716141" display="inline" width="10" height="10" id="svg_16"/><rect x="70" y="42.89562922716141" display="inline" width="10" height="10" id="svg_17"/><rect x="60" y="52.89562922716141" display="inline" width="10" height="10" id="svg_18"/><rect x="50" y="62.89562922716141" display="inline" width="10" height="10" id="svg_19"/></g><g id="svg_20" class=""><path d="M25.075000000000003,0.5666292271614071 c-0.8450000000000002,-0.5930000000000002 -1.8290000000000002,-0.7250000000000002 -2.801,-0.3750000000000001 c-2.5060000000000002,0.903 -4.622,2.614 -6.049,4.813 v-0.97 c0,-1.393 -1.13,-2.5220000000000002 -2.523,-2.5220000000000002 s-2.523,1.129 -2.523,2.5220000000000002 v31.929 h5.046 V18.15562922716141 c1.4260000000000002,2.196 3.5380000000000003,3.907 6.041,4.812 c0.974,0.3520000000000001 1.9620000000000002,0.22000000000000006 2.809,-0.3750000000000001 c0.8480000000000002,-0.5950000000000002 1.303,-1.479 1.303,-2.515 V3.075629227161407 C26.376999999999995,2.0426292271614077 25.92,1.1616292271614075 25.075000000000003,0.5666292271614071 z" id="svg_21"/><path d="M16.212000000000003,37.856629227161406 h0.013000000000000006 v2.3890000000000002 c0,0 -1.187,5.62 -1.075,8.093 h-2.249 c0,0 -1.602,-4.721 -1.714,-8.093 l-0.004000000000000002,-0.4960000000000001 l-0.018000000000000006,-1.8930000000000002 H16.212000000000003 z" id="svg_22"/><path d="M20.893,69.04562922716141 c-1.483,-1.6540000000000004 -2.8840000000000003,-3.216 -3.79,-4.878 c-2.271,-4.167 -2.243,-11.362 -2.151,-13.935 h-2.004 c-0.10300000000000002,2.802 -0.11100000000000003,10.285 2.4,14.892 c1.018,1.867 2.494,3.5140000000000002 4.057,5.257 c3.071,3.425 6.248,6.966 5.973,12.465 l1.9969999999999999,0.1 C27.689999999999998,76.6246292271614 24.079000000000008,72.59862922716141 20.893,69.04562922716141 z" id="svg_23"/><path d="M62.233000000000004,0.5666292271614071 c0.8450000000000002,-0.5930000000000002 1.8290000000000002,-0.7250000000000002 2.801,-0.3750000000000001 c2.5060000000000002,0.903 4.622,2.614 6.049,4.813 v-0.97 c0,-1.393 1.13,-2.5220000000000002 2.523,-2.5220000000000002 s2.523,1.129 2.523,2.5220000000000002 v31.929 h-5.046 V18.15562922716141 c-1.4260000000000002,2.196 -3.5380000000000003,3.907 -6.041,4.812 c-0.974,0.3520000000000001 -1.9620000000000002,0.22000000000000006 -2.809,-0.3750000000000001 c-0.8480000000000002,-0.5950000000000002 -1.303,-1.479 -1.303,-2.515 V3.075629227161407 C60.931,2.0426292271614077 61.388000000000005,1.1616292271614075 62.233000000000004,0.5666292271614071 z" id="svg_24"/><path d="M71.097,37.856629227161406 h-0.013000000000000006 v2.3890000000000002 c0,0 1.187,5.62 1.075,8.093 h2.249 c0,0 1.602,-4.721 1.714,-8.093 l0.004000000000000002,-0.4960000000000001 l0.018000000000000006,-1.8930000000000002 H71.097 z" id="svg_25"/><path d="M66.416,69.04562922716141 c1.483,-1.6540000000000004 2.8840000000000003,-3.216 3.79,-4.878 c2.271,-4.167 2.243,-11.362 2.151,-13.935 h2.004 c0.10300000000000002,2.802 0.11100000000000003,10.285 -2.4,14.892 c-1.018,1.867 -2.494,3.5140000000000002 -4.057,5.257 c-3.071,3.425 -6.248,6.966 -5.973,12.465 l-1.9969999999999999,0.1 C59.619,76.6246292271614 63.230000000000004,72.59862922716141 66.416,69.04562922716141 z" id="svg_26"/></g></g></svg>