<svg xmlns="http://www.w3.org/2000/svg" xmlns:xlink="http://www.w3.org/1999/xlink" version="1.1" enable-background="new 0 0 100 100" xml:space="preserve" width="193" height="193"><rect id="backgroundrect" width="100%" height="100%" x="0" y="0" fill="none" stroke="none" class="" style=""/><g class="currentLayer" style=""><title>Layer 1</title><g id="svg_1" class=""><g id="svg_2"><path d="M172.02387667409323,36.52693904705979 C154.38205106627035,14.276374064167737 127.07259076934886,0 96.46198692005228,0 C43.193534143090076,0 0,43.193534143090076 0,96.46198692005228 c0,53.268452776962214 43.193534143090076,96.46198692005228 96.46198692005228,96.46198692005228 c35.047855247619,0 65.72276708819562,-18.692189465396797 82.5928968006581,-46.64472967511862 C187.86507852607517,131.74563813569804 192.92397384010457,114.68258444939549 192.92397384010457,96.46198692005228 C192.92397384010457,73.82557398948 185.121270898127,52.989784814748724 172.02387667409323,36.52693904705979 zM134.5987693488223,101.75453460239916 L83.89406182422414,138.18929886195755 c-1.121102647981941,0.8059934907097704 -2.4308420703853173,1.2304262331580005 -3.789884286103388,1.2304262331580005 c-3.6012475116819522,0 -6.529404714632872,-2.9260136032415858 -6.529404714632872,-6.522973915504868 V60.02722266049386 c0,-3.596960312263284 2.9281572029509206,-6.522973915504868 6.529404714632872,-6.522973915504868 c1.3590422157180702,0 2.6687816381214464,0.42443274244823015 3.789884286103388,1.228282633448666 l50.70470752459815,36.436907859267755 c1.6998745695022546,1.2218518343206624 2.7137972320174715,3.2003943660364014 2.7137972320174715,5.292547682346868 S136.2965003186152,100.53053916836916 134.5987693488223,101.75453460239916 z" id="svg_3"/><polygon points="80.10417938232422,136.20433044433594 80.10417938232422,136.18502807617188 80.10417938232422,136.18502807617188 " id="svg_4"/></g></g></g></svg>