<svg xmlns="http://www.w3.org/2000/svg" xmlns:xlink="http://www.w3.org/1999/xlink" version="1.1" enable-background="new 0 0 100 100" xml:space="preserve" width="174" height="174"><rect id="backgroundrect" width="100%" height="100%" x="0" y="0" fill="none" stroke="none" class="" style=""/><g class="currentLayer" style=""><title>Layer 1</title><g id="svg_1" class=""><path d="M86.8128708738995,0 C38.944253783189446,0 -1.6474768926855177e-7,38.944253947937135 -1.6474768926855177e-7,86.81287103864719 s38.944253947937135,86.81287103864719 86.81287103864719,86.81287103864719 c47.86861709071005,0 86.81287103864719,-38.944253947937135 86.81287103864719,-86.81287103864719 S134.68148796460954,0 86.8128708738995,0 zM86.8128708738995,165.19717688689772 C43.59163614612502,165.19717688689772 8.428565025648966,130.03410576642165 8.428565025648966,86.81287103864719 S43.59163614612502,8.428565190396656 86.8128708738995,8.428565190396656 c43.22123472777448,0 78.38430584825052,35.16307112047605 78.38430584825052,78.38430584825052 S130.03410560167396,165.19717688689772 86.8128708738995,165.19717688689772 z" id="svg_2"/><path d="M131.06235582975395,83.16287210520007 L67.84715231432304,46.66674112055279 c-1.3041222404916781,-0.7543073905802459 -2.9111249421626355,-0.7543073905802459 -4.215247182654314,0 c-1.3041222404916781,0.752378215668276 -2.106659003871172,2.1433133271986007 -2.106659003871172,3.6499989334471223 v72.99226196929455 c0,1.5047564313365513 0.8044659382914641,2.897620717778846 2.106659003871172,3.6499989334471223 c0.6520611202458393,0.3761891078341381 1.3793600620585056,0.565248249207192 2.106659003871172,0.565248249207192 c0.7272989418126664,0 1.4545978836253333,-0.18905914137305396 2.106659003871172,-0.565248249207192 l63.21327434051895,-36.49613098464727 c1.3041222404916781,-0.752378215668276 2.1085881787831418,-2.1413841522866313 2.1085881787831418,-3.6499989334471223 S132.36454889533366,83.91525032086834 131.06235582975395,83.16287210520007 zM69.95574049310619,116.00900415640021 V57.61673792089415 L120.52713163548613,86.81287103864719 L69.95574049310619,116.00900415640021 z" id="svg_3"/></g></g></svg>